<svg viewBox="0 0 800 800" xmlns="http://www.w3.org/2000/svg"><path d="M475.0173732677507,-16.389738171218426 L459.0138349837187,-18.45827893744331 M470.02552989126167,10.520107045293685 L454.01604901801954,8.436641772046187 M475.0173732677507,-16.389738171218426 L474.9300374209534,-13.552243334273214 M474.9300374209534,-13.552243334273214 L474.72934161009437,-10.573879735460764 M474.72934161009437,-10.573879735460764 L474.41972604497727,-7.519746091170816 M474.41972604497727,-7.519746091170816 L474.0079949441994,-4.456728334490208 M474.0079949441994,-4.456728334490208 L473.50317845741193,-1.451864255417206 M473.50317845741193,-1.451864255417206 L472.9163009015496,1.429139019301033 M472.9163009015496,1.429139019301033 L472.26020029589114,4.123090798547025 M472.26020029589114,4.123090798547025 L471.54919030338726,6.571072657757952 M471.54919030338726,6.571072657757952 L470.7988253320909,8.719157743197854 M470.7988253320909,8.719157743197854 L470.02552989126167,10.520107045293685 M459.0138349837187,-18.45827893744331 L458.9301474802581,-15.6217761636222 M458.9301474802581,-15.6217761636222 L458.7322225081364,-12.644596067156726 M458.7322225081364,-12.644596067156726 L458.424432789882,-9.59181526369332 M458.424432789882,-9.59181526369332 L458.01355398185314,-6.530284951814394 M458.01355398185314,-6.530284951814394 L457.50858657853024,-3.5270160183287658 M457.50858657853024,-3.5270160183287658 L456.9205619547093,-0.6476792107967526 M456.9205619547093,-0.6476792107967526 L456.2623428891234,2.04457100826545 M456.2623428891234,2.04457100826545 L455.5482854964113,4.4908513897253215 M455.5482854964113,4.4908513897253215 L454.7940214098189,6.637277663835846 M454.7940214098189,6.637277663835846 L454.01604901801954,8.436641772046187 M469.69599146082743,11.166785196188869 L453.6843259591717,9.082681334282427 M470.02552989126167,10.520107045293685 L469.91573278197023,10.74346070236328 M469.91573278197023,10.74346070236328 L469.8058770244004,10.959073995259985 M469.8058770244004,10.959073995259985 L469.69599146082743,11.166785196188869 M454.01604901801954,8.436641772046187 L453.90553659140807,8.65978025483065 M453.90553659140807,8.65978025483065 L453.79494882032895,8.87517883836199 M453.79494882032895,8.87517883836199 L453.6843259591717,9.082681334282427 M444.041015716575,58.734259194192816 L427.8550208667469,56.601003901443846 M469.69599146082743,11.166785196188869 L444.041015716575,58.734259194192816 M453.6843259591717,9.082681334282427 L427.8550208667469,56.601003901443846 M442.7297816540537,712.3408092724 L427.567264542115,710.0240860324209 M444.041015716575,58.734259194192816 L442.7297816540537,712.3408092724 M427.8550208667469,56.601003901443846 L427.567264542115,710.0240860324209 M476.32901603153806,640.1649776634074 L461.380299239688,637.9179944020457 M442.7297816540537,712.3408092724 L476.32901603153806,640.1649776634074 M427.567264542115,710.0240860324209 L461.380299239688,637.9179944020457 M476.940037916365,638.9769727778969 L461.9954150174583,636.7312199007777 M476.32901603153806,640.1649776634074 L476.940037916365,638.9769727778969 M461.380299239688,637.9179944020457 L461.9954150174583,636.7312199007777 M476.46150807732806,671.3415531922942 L461.56357418160417,669.0873137705759 M476.940037916365,638.9769727778969 L477.6789757079826,637.8847330644746 M477.6789757079826,637.8847330644746 L478.3826679256692,637.2333683699774 M478.3826679256692,637.2333683699774 L479.0341677554088,637.0380620384323 M479.0341677554088,637.0380620384323 L479.6178052517134,637.3029469534337 M479.6178052517134,637.3029469534337 L480.1196446050781,638.0210542473865 M480.1196446050781,638.0210542473865 L480.52768743230496,639.1745470690857 M480.52768743230496,639.1745470690857 L480.8322450442955,640.7351776486178 M480.8322450442955,640.7351776486178 L481.02614358576835,642.6650421633622 M481.02614358576835,642.6650421633622 L481.1048390340537,644.9174901186814 M481.1048390340537,644.9174901186814 L481.06653497786397,647.4382913542499 M481.06653497786397,647.4382913542499 L480.91223533910215,650.1669147366972 M480.91223533910215,650.1669147366972 L480.6457130338288,653.0379605243053 M480.6457130338288,653.0379605243053 L480.27336831575315,655.9827178462692 M480.27336831575315,655.9827178462692 L479.8041152469251,658.9307637813781 M479.8041152469251,658.9307637813781 L479.24917876617286,661.8116040065336 M479.24917876617286,661.8116040065336 L478.62182975156094,664.5563241389812 M478.62182975156094,664.5563241389812 L477.9370218023478,667.0991939260704 M477.9370218023478,667.0991939260704 L477.2111223868603,669.3792117149032 M477.2111223868603,669.3792117149032 L476.46150807732806,671.3415531922942 M461.9954150174583,636.7312199007777 L462.7398466020155,635.6403824080555 M462.7398466020155,635.6403824080555 L463.44938787734736,634.9902591085922 M463.44938787734736,634.9902591085922 L464.10694346469387,634.7960077131188 M464.10694346469387,634.7960077131188 L464.6967175958259,635.0617245931716 M464.6967175958259,635.0617245931716 L465.20459909713395,635.780436873853 M465.20459909713395,635.780436873853 L465.6184647084987,636.9342743310651 M465.6184647084987,636.9342743310651 L465.9284931627108,638.4950006903284 M465.9284931627108,638.4950006903284 L466.12734530968504,640.4247063598352 M466.12734530968504,640.4247063598352 L466.2103862652013,642.6767372886831 M466.2103862652013,642.6767372886831 L466.175709112089,645.1968773809508 M466.175709112089,645.1968773809508 L466.02423142447896,647.9246113879663 M466.02423142447896,647.9246113879663 L465.7596590400145,650.7945607898909 M465.7596590400145,650.7945607898909 L465.3883459085912,653.7380407695885 M465.3883459085912,653.7380407695885 L464.91918160412206,656.684658705128 M464.91918160412206,656.684658705128 L464.3633958518153,659.5639502378183 M464.3633958518153,659.5639502378183 L463.73425919215333,662.3070493536047 M463.73425919215333,662.3070493536047 L463.0467881797556,664.8482527289369 M463.0467881797556,664.8482527289369 L462.3174067042716,667.1266023402416 M462.3174067042716,667.1266023402416 L461.56357418160417,669.0873137705759 M476.15580796007004,672.0336177834581 L461.2559787344144,669.7787372253069 M476.46150807732806,671.3415531922942 L476.15580796007004,672.0336177834581 M461.56357418160417,669.0873137705759 L461.2559787344144,669.7787372253069 M437.6368763451122,755.3338221435426 L422.4928057711821,752.9986246005788 M476.15580796007004,672.0336177834581 L437.6368763451122,755.3338221435426 M461.2559787344144,669.7787372253069 L422.4928057711821,752.9986246005788 M437.00520976669816,756.5738615943626 L421.8569414002092,754.2373646943201 M437.6368763451122,755.3338221435426 L437.42582794822914,755.7762185009136 M437.42582794822914,755.7762185009136 L437.21515022338355,756.1898079343669 M437.21515022338355,756.1898079343669 L437.00520976669816,756.5738615943626 M422.4928057711821,752.9986246005788 L422.28039962047507,753.4405798999862 M422.28039962047507,753.4405798999862 L422.0683216749435,753.8537365527945 M422.0683216749435,753.8537365527945 L421.8569414002092,754.2373646943201 M432.60101238978245,750.1884562525381 L417.3996435788545,747.846556558 M437.00520976669816,756.5738615943626 L436.21386721237127,757.7608601395373 M436.21386721237127,757.7608601395373 L435.45905940952326,758.4737191427498 M435.45905940952326,758.4737191427498 L434.76022274815404,758.6935114480411 M434.76022274815404,758.6935114480411 L434.13540753447614,758.41392451641 M434.13540753447614,758.41392451641 L433.600806720072,757.6414876561064 M433.600806720072,757.6414876561064 L433.17032673738305,756.3954755278442 M433.17032673738305,756.3954755278442 L432.8552135975206,754.7074692779745 M432.8552135975206,754.7074692779745 L432.663748205316,752.6205984606332 M432.663748205316,752.6205984606332 L432.60101238978245,750.1884562525381 M421.8569414002092,754.2373646943201 L421.0597572217827,755.4228250823719 M421.0597572217827,755.4228250823719 L420.2987118940042,756.1343184611978 M420.2987118940042,756.1343184611978 L419.59340369435796,756.3529520061522 M419.59340369435796,756.3529520061522 L418.96204843567523,756.0724452514694 M418.96204843567523,756.0724452514694 L418.421006331189,755.299350989209 M418.421006331189,755.299350989209 L417.98435092708803,754.0529617604395 M417.98435092708803,754.0529617604395 L417.6634877811456,752.3648685613384 M417.6634877811456,752.3648685613384 L417.4668459806449,750.2782039288086 M417.4668459806449,750.2782039288086 L417.3996435788545,747.846556558 M433.2660911810684,60.29750277383101 L416.97778956678866,58.14920162352308 M432.60101238978245,750.1884562525381 L433.2660911810684,60.29750277383101 M417.3996435788545,747.846556558 L416.97778956678866,58.14920162352308 M438.37251516247574,32.46967636748633 L422.0897534601475,30.337011899561617 M433.2660911810684,60.29750277383101 L433.33043033179547,57.40676771507668 M433.33043033179547,57.40676771507668 L433.5166786720878,54.35286431021018 M433.5166786720878,54.35286431021018 L433.82063866791486,51.20568943510921 M433.82063866791486,51.20568943510921 L434.23539019989255,48.03732554380849 M434.23539019989255,48.03732554380849 L434.7514497364062,44.92025580394045 M434.7514497364062,44.92025580394045 L435.3569956085344,41.92584376706549 M435.3569956085344,41.92584376706549 L436.0381391448875,39.122647612859225 M436.0381391448875,39.122647612859225 L436.77925933795734,36.57465175072883 M436.77925933795734,36.57465175072883 L437.5633692374988,34.340123512833486 M437.5633692374988,34.340123512833486 L438.37251516247574,32.46967636748633 M416.97778956678866,58.14920162352308 L417.0381726393594,55.25946205707089 M417.0381726393594,55.25946205707089 L417.22139211047505,52.2067710715408 M417.22139211047505,52.2067710715408 L417.52331850255507,49.06099703904215 M417.52331850255507,49.06099703904215 L417.93708021904524,45.894190244334254 M417.93708021904524,45.894190244334254 L418.4532174062779,42.77879790059967 M418.4532174062779,42.77879790059967 L419.0599035942196,39.78614518870228 M419.0599035942196,39.78614518870228 L419.74322638681554,36.984749310802385 M419.74322638681554,36.984749310802385 L420.487512924198,34.43855299926071 M420.487512924198,34.43855299926071 L421.2757039556853,32.20578336415991 M421.2757039556853,32.20578336415991 L422.0897534601475,30.337011899561617 M438.71266151666237,31.808193136846626 L422.432157737986,29.676194193336357 M438.37251516247574,32.46967636748633 L438.48583765630417,32.241223796591214 M438.48583765630417,32.241223796591214 L438.5992358961739,32.02067406709028 M438.5992358961739,32.02067406709028 L438.71266151666237,31.808193136846626 M422.0897534601475,30.337011899561617 L422.2038157079778,30.108783456877234 M422.2038157079778,30.108783456877234 L422.31796697946504,29.888455454347877 M422.31796697946504,29.888455454347877 L422.432157737986,29.676194193336357 M464.5834192087876,-15.730216811005505 L448.47927834768456,-17.812800184609557 M438.71266151666237,31.808193136846626 L464.5834192087876,-15.730216811005505 M422.432157737986,29.676194193336357 L448.47927834768456,-17.812800184609557 M464.58494603813074,-16.115325617677968 L448.4802090786791,-18.197786933657767 M464.5834192087876,-15.730216811005505 L464.58494603813074,-16.115325617677968 M448.47927834768456,-17.812800184609557 L448.4802090786791,-18.197786933657767 M469.9416199563127,-43.81792969707607 L453.8451002567852,-45.88466242566386 M464.58494603813074,-16.115325617677968 L464.6766918914194,-19.097316313093927 M464.6766918914194,-19.097316313093927 L464.89308332292,-22.232582462100595 M464.89308332292,-22.232582462100595 L465.2289356356424,-25.445552186058308 M465.2289356356424,-25.445552186058308 L465.6761760249642,-28.658417712614607 M465.6761760249642,-28.658417712614607 L466.2239799038253,-31.79355091114894 M466.2239799038253,-31.79355091114894 L466.85910574156935,-34.775060008962555 M466.85910574156935,-34.775060008962555 L467.5661695643292,-37.530981308749574 M467.5661695643292,-37.530981308749574 L468.3280426421441,-39.994905136623856 M468.3280426421441,-39.994905136623856 L469.12628215119804,-42.10738215873437 M469.12628215119804,-42.10738215873437 L469.9416199563127,-43.81792969707607 M448.4802090786791,-18.197786933657767 L448.5681175546296,-21.178726097520496 M448.5681175546296,-21.178726097520496 L448.7816383780381,-24.312728909089458 M448.7816383780381,-24.312728909089458 L449.1156639200161,-27.524250599314257 M449.1156639200161,-27.524250599314257 L449.56216612442034,-30.735518737142968 M449.56216612442034,-30.735518737142968 L450.1103308058831,-33.86894771418321 M450.1103308058831,-33.86894771418321 L450.746911567636,-36.84868553633527 M450.746911567636,-36.84868553633527 L451.4564888912952,-39.602811613985466 M451.4564888912952,-39.602811613985466 L452.2218689569459,-42.0649616538027 M452.2218689569459,-42.0649616538027 L453.02453510525424,-44.175723948768564 M453.02453510525424,-44.175723948768564 L453.8451002567852,-45.88466242566386 M475.1120714832049,-35.457445816062545 L459.0791951445136,-37.51996456331506 M469.9416199563127,-43.81792969707607 L470.75437116470624,-45.08563595236495 M470.75437116470624,-45.08563595236495 L471.544991180714,-45.880613533073415 M471.544991180714,-45.880613533073415 L472.29448752775994,-46.184187146325144 M472.29448752775994,-46.184187146325144 L472.9849260716313,-45.9898978836149 M472.9849260716313,-45.9898978836149 L473.59983846755586,-45.30301993929004 M473.59983846755586,-45.30301993929004 L474.12460428968393,-44.1406117069219 M474.12460428968393,-44.1406117069219 L474.54679745498584,-42.531191771955434 M474.54679745498584,-42.531191771955434 L474.8564628673206,-40.51367617254141 M474.8564628673206,-40.51367617254141 L475.0463543009121,-38.13680806702388 M475.0463543009121,-38.13680806702388 L475.1120714832049,-35.457445816062545 M453.8451002567852,-45.88466242566386 L454.663756668004,-47.15090208997577 M454.663756668004,-47.15090208997577 L455.4608129547776,-47.94459223452651 M455.4608129547776,-47.94459223452651 L456.2171326587996,-48.24708273215634 M456.2171326587996,-48.24708273215634 L456.9146058766165,-48.05194534471474 M456.9146058766165,-48.05194534471474 L457.53659913098824,-47.364472158037415 M457.53659913098824,-47.364472158037415 L458.06832618562066,-46.20173336371937 M458.06832618562066,-46.20173336371937 L458.49718329321047,-44.59226010314319 M458.49718329321047,-44.59226010314319 L458.81306406263843,-42.574965612328356 M458.81306406263843,-42.574965612328356 L459.00858166089495,-40.198583745994085 M459.00858166089495,-40.198583745994085 L459.0791951445136,-37.51996456331506 M475.0211736894509,-17.154961988344496 L459.0164580151705,-19.223261769689316 M475.1120714832049,-35.457445816062545 L475.0211736894509,-17.154961988344496 M459.0791951445136,-37.51996456331506 L459.0164580151705,-19.223261769689316 M475.0211736894509,-17.154961988344496 L475.02092814292627,-16.901781442470394 M475.02092814292627,-16.901781442470394 L475.01966106514254,-16.64665735222127 M475.01966106514254,-16.64665735222127 L475.0173732677507,-16.389738171218426 M459.0164580151705,-19.223261769689316 L459.01660812696906,-18.970161418198302 M459.01660812696906,-18.970161418198302 L459.01573358860276,-18.715117671890823 M459.01573358860276,-18.715117671890823 L459.0138349837187,-18.45827893744331" stroke="black"  stroke-width="4"  fill="red"/>
<path d="M540.9449279239109,126.88781027296284 L552.8747435771252,120.83302943243734 M526.3932366457309,137.97684409526914 L538.3028176112539,131.92697689191795 M540.9449279239109,126.88781027296284 L540.6962411156806,129.53911706839904 M540.6962411156806,129.53911706839904 L540.1145428607606,131.9543340389897 M540.1145428607606,131.9543340389897 L539.2130351168632,134.0803477209031 M539.2130351168632,134.0803477209031 L538.0119902666402,135.87038388801034 M538.0119902666402,135.87038388801034 L536.5382944849418,137.2852301796998 M536.5382944849418,137.2852301796998 L534.8247855911791,138.29411206152002 M534.8247855911791,138.29411206152002 L532.9095154830042,138.8751363778349 M532.9095154830042,138.8751363778349 L530.834884374557,139.01611609305337 M530.834884374557,139.01611609305337 L528.6467278543489,138.7142986388563 M528.6467278543489,138.7142986388563 L526.3932366457309,137.97684409526914 M552.8747435771252,120.83302943243734 L552.6229121030142,123.48226882817067 M552.6229121030142,123.48226882817067 L552.0381644120118,125.89595999542348 M552.0381644120118,125.89595999542348 L551.1337692015825,128.0210225458909 M551.1337692015825,128.0210225458909 L549.9300620549614,129.8107024617442 M549.9300620549614,129.8107024617442 L548.4539872412468,131.22579414560892 M548.4539872412468,131.22579414560892 L546.7384342839171,132.2355163332121 M546.7384342839171,132.2355163332121 L544.8214995541855,132.81795606622478 M544.8214995541855,132.81795606622478 L542.7456191544481,132.96089366109584 M542.7456191544481,132.96089366109584 L540.5566558279961,132.66153228733606 M540.5566558279961,132.66153228733606 L538.3028176112539,131.92697689191795 M525.433429565628,137.53801757559341 L537.3430042676184,131.48949315862046 M526.3932366457309,137.97684409526914 L526.0734304447716,137.83878506591861 M526.0734304447716,137.83878506591861 L525.7534429286173,137.69250886281077 M525.7534429286173,137.69250886281077 L525.433429565628,137.53801757559341 M538.3028176112539,131.92697689191795 L537.9830000646391,131.78935821791333 M537.9830000646391,131.78935821791333 L537.6630104337469,131.64352966312072 M537.6630104337469,131.64352966312072 L537.3430042676184,131.48949315862046 M452.22888812658636,101.25933799985614 L464.14025596337245,95.31520519381866 M525.433429565628,137.53801757559341 L452.22888812658636,101.25933799985614 M537.3430042676184,131.48949315862046 L464.14025596337245,95.31520519381866 M450.3822459032579,758.491452514289 L461.5367274901516,752.0441735641143 M452.22888812658636,101.25933799985614 L450.3822459032579,758.491452514289 M464.14025596337245,95.31520519381866 L461.5367274901516,752.0441735641143 M546.7261789003278,813.8175948727678 L557.8781616361118,807.2210527313507 M450.3822459032579,758.491452514289 L546.7261789003278,813.8175948727678 M461.5367274901516,752.0441735641143 L557.8781616361118,807.2210527313507 M548.5269663368533,814.9810893714027 L559.6787269642807,808.3816524163249 M546.7261789003278,813.8175948727678 L548.5269663368533,814.9810893714027 M557.8781616361118,807.2210527313507 L559.6787269642807,808.3816524163249 M547.2083617351122,846.7634746252622 L558.3231885551684,840.1439448687613 M548.5269663368533,814.9810893714027 L550.7081646682557,816.7483500830888 M550.7081646682557,816.7483500830888 L552.7888621323527,818.8382285975218 M552.7888621323527,818.8382285975218 L554.7185198169684,821.2001577625888 M554.7185198169684,821.2001577625888 L556.4502584841734,823.7768793544745 M556.4502584841734,823.7768793544745 L557.9419771906357,826.5058443279679 M557.9419771906357,826.5058443279679 L559.1574935255105,829.3207972547016 M559.1574935255105,829.3207972547016 L560.0673345525404,832.1533727517672 M560.0673345525404,832.1533727517672 L560.6495574649052,834.9348446713948 M560.6495574649052,834.9348446713948 L560.8902175518567,837.5977771499945 M560.8902175518567,837.5977771499945 L560.7837175437096,840.0777161398323 M560.7837175437096,840.0777161398323 L560.3329089227957,842.3147490146055 M560.3329089227957,842.3147490146055 L559.5490062376537,844.2549691104433 M559.5490062376537,844.2549691104433 L558.4513040163674,845.8517873385717 M558.4513040163674,845.8517873385717 L557.0666426953505,847.067015229579 M557.0666426953505,847.067015229579 L555.4287309819595,847.8717627148576 M555.4287309819595,847.8717627148576 L553.5772859036001,848.2470827321563 M553.5772859036001,848.2470827321563 L551.5571261646271,848.1844293074416 M551.5571261646271,848.1844293074416 L549.4169885628362,847.6857644961985 M549.4169885628362,847.6857644961985 L547.2083617351122,846.7634746252622 M559.6787269642807,808.3816524163249 L561.85924820687,810.1451606147673 M561.85924820687,810.1451606147673 L563.9388396694139,812.2311817242133 M563.9388396694139,812.2311817242133 L565.8669896031452,814.589242410754 M565.8669896031452,814.589242410754 L567.5968557647386,817.1621787797772 M567.5968557647386,817.1621787797772 L569.0863830662961,819.8875343103375 M569.0863830662961,819.8875343103375 L570.2994426544108,822.699141809507 M570.2994426544108,822.699141809507 L571.2066214804124,825.5287177469537 M571.2066214804124,825.5287177469537 L571.7860414450979,828.307609209661 M571.7860414450979,828.307609209661 L572.0238257717301,830.9684432014922 M572.0238257717301,830.9684432014922 L571.9144466591335,833.4468165502557 M571.9144466591335,833.4468165502557 L571.4608249178639,835.6828542887525 M571.4608249178639,835.6828542887525 L570.6742426184742,837.6226732789366 M570.6742426184742,837.6226732789366 L569.5740584022124,839.2196932688815 M569.5740584022124,839.2196932688815 L568.1871719176347,840.4357198560249 M568.1871719176347,840.4357198560249 L566.5473448114194,841.2418425037677 M566.5473448114194,841.2418425037677 L564.6943395734129,841.6190797846367 M564.6943395734129,841.6190797846367 L562.6730118592868,841.5588382911515 M562.6730118592868,841.5588382911515 L560.5321260845678,841.0630209714193 M560.5321260845678,841.0630209714193 L558.3231885551684,840.1439448687613 M546.3081362187149,846.2751917924685 L557.4229636286475,839.6570477006337 M547.2083617351122,846.7634746252622 L546.3081362187149,846.2751917924685 M558.3231885551684,840.1439448687613 L557.4229636286475,839.6570477006337 M436.3093547055025,782.6825755202549 L447.4267700808407,776.2352781054335 M546.3081362187149,846.2751917924685 L436.3093547055025,782.6825755202549 M557.4229636286475,839.6570477006337 L447.4267700808407,776.2352781054335 M434.5603626644946,781.5446564685102 L445.6779340447496,775.1001421002525 M436.3093547055025,782.6825755202549 L435.72487757512454,782.3305709056626 M435.72487757512454,782.3305709056626 L435.1415426415058,781.9510429480273 M435.1415426415058,781.9510429480273 L434.5603626644946,781.5446564685102 M447.4267700808407,776.2352781054335 L446.84231261951686,775.884184735211 M446.84231261951686,775.884184735211 L446.25902971734126,775.5055849990534 M446.25902971734126,775.5055849990534 L445.6779340447496,775.1001421002525 M422.37226003993493,758.5428194495946 L433.50828715976303,752.1277585218473 M434.5603626644946,781.5446564685102 L432.37067189598287,779.7514739993059 M432.37067189598287,779.7514739993059 L430.28343791626236,777.6209752707707 M430.28343791626236,777.6209752707707 L428.35195780713985,775.2077643189234 M428.35195780713985,775.2077643189234 L426.62553533025044,772.5735794417762 M426.62553533025044,772.5735794417762 L425.14825171515383,769.7857384822532 M425.14825171515383,769.7857384822532 L423.9578680855532,766.9154577873826 M423.9578680855532,766.9154577873826 L423.08487581181936,764.0360645675929 M423.08487581181936,764.0360645675929 L422.5517273057639,761.2211706546884 M422.5517273057639,761.2211706546884 L422.37226003993493,758.5428194495946 M445.6779340447496,775.1001421002525 L443.48886210212964,773.3106889345481 M443.48886210212964,773.3106889345481 L441.40270251471514,771.1840251106901 M441.40270251471514,771.1840251106901 L439.4727252349875,768.7746568843761 M439.4727252349875,768.7746568843761 L437.74819602239205,766.1442248343758 M437.74819602239205,766.1442248343758 L436.2731481439566,763.3599515446579 M436.2731481439566,763.3599515446579 L435.0852859549415,760.4929628772986 M435.0852859549415,760.4929628772986 L434.2150366416948,757.6165025360581 M434.2150366416948,757.6165025360581 L433.68478259018116,754.8041078452903 M433.68478259018116,754.8041078452903 L433.50828715976303,752.1277585218473 M422.30568686264536,67.96245590918505 L434.23856768507596,62.076601731477865 M422.37226003993493,758.5428194495946 L422.30568686264536,67.96245590918505 M433.50828715976303,752.1277585218473 L434.23856768507596,62.076601731477865 M436.3487876878855,56.3624682597146 L448.30295336154774,50.47282587957386 M422.30568686264536,67.96245590918505 L422.4749416048683,65.26591966394102 M422.4749416048683,65.26591966394102 L422.9796190712506,62.79611664842031 M422.9796190712506,62.79611664842031 L423.80862754759664,60.60920429589754 M423.80862754759664,60.60920429589754 L424.94353715348154,58.75504180262982 M424.94353715348154,58.75504180262982 L426.3589617466345,57.275947767132266 M426.3589617466345,57.275947767132266 L428.023100824964,56.2058968654178 M428.023100824964,56.2058968654178 L429.8984325632963,55.569700034817345 M429.8984325632963,55.569700034817345 L431.94254500260064,55.38223921919308 M431.94254500260064,55.38223921919308 L434.10908003154043,55.64842844276171 M434.10908003154043,55.64842844276171 L436.3487876878855,56.3624682597146 M434.23856768507596,62.076601731477865 L434.41102979856464,59.38222370508532 M434.41102979856464,59.38222370508532 L434.9188429396549,56.91405515527191 M434.9188429396549,56.91405515527191 L435.7508437924433,54.72821594536032 M435.7508437924433,54.72821594536032 L436.8885339676393,52.874540097314195 M436.8885339676393,52.874540097314195 L438.30646361857407,51.39533415542468 M438.30646361857407,51.39533415542468 L439.97277463659543,50.324574071973586 M439.97277463659543,50.324574071973586 L441.84989507775106,49.6870854853812 M441.84989507775106,49.6870854853812 L443.89537174391387,49.497778389640416 M443.89537174391387,49.497778389640416 L446.062814765573,49.76160739715925 M446.062814765573,49.76160739715925 L448.30295336154774,50.47282587957386 M437.2914989604586,56.78876965049915 L449.2457005918289,50.89783033753275 M436.3487876878855,56.3624682597146 L436.6627805386157,56.49632677870943 M436.6627805386157,56.49632677870943 L436.97706434500736,56.63842463426204 M436.97706434500736,56.63842463426204 L437.2914989604586,56.78876965049915 M448.30295336154774,50.47282587957386 L448.6169675901021,50.60625950118282 M448.6169675901021,50.60625950118282 L448.9312634111841,50.74792500244081 M448.9312634111841,50.74792500244081 L449.2457005918289,50.89783033753275 M510.5012162511441,92.7450978861861 L522.4539936433321,86.75050809324853 M437.2914989604586,56.78876965049915 L510.5012162511441,92.7450978861861 M449.2457005918289,50.89783033753275 L522.4539936433321,86.75050809324853 M510.50452818910884,92.35374154634911 L522.4577541042191,86.3594913678009 M510.5012162511441,92.7450978861861 L510.50452818910884,92.35374154634911 M522.4539936433321,86.75050809324853 L522.4577541042191,86.3594913678009 M525.9910879220752,81.52100448260262 L537.9647855975086,75.52094684437219 M510.50452818910884,92.35374154634911 L510.76147589624463,89.58771508865783 M510.76147589624463,89.58771508865783 L511.3787928399106,87.0755325710141 M511.3787928399106,87.0755325710141 L512.3421188175395,84.87732957515897 M512.3421188175395,84.87732957515897 L513.6287701471231,83.04615800057303 M513.6287701471231,83.04615800057303 L515.2083281178716,81.62620853141294 M515.2083281178716,81.62620853141294 L517.0432605782938,80.6520997049164 M517.0432605782938,80.6520997049164 L519.0898295015547,80.14767652602956 M519.0898295015547,80.14767652602956 L521.2990983323468,80.12553219589034 M521.2990983323468,80.12553219589034 L523.6180918460225,80.58690205008878 M523.6180918460225,80.58690205008878 L525.9910879220752,81.52100448260262 M522.4577541042191,86.3594913678009 L522.71799520877,83.59563504564312 M522.71799520877,83.59563504564312 L523.3385056517473,81.08504540961138 M523.3385056517473,81.08504540961138 L524.3048484005891,78.8878194197041 M524.3048484005891,78.8878194197041 L525.5942666352869,77.05698451105735 M525.5942666352869,77.05698451105735 L527.1762746128328,75.63672207723562 M527.1762746128328,75.63672207723562 L529.0132804644572,74.66165661236613 M529.0132804644572,74.66165661236613 L531.0614956686145,74.15565456880523 M531.0614956686145,74.15565456880523 L533.2719435149738,74.13134560673439 M533.2719435149738,74.13134560673439 L535.5916197143033,74.59001557754715 M535.5916197143033,74.59001557754715 L537.9647855975086,75.52094684437219 M541.1680228970465,107.41242519752439 L553.1201045551034,101.37449586881627 M525.9910879220752,81.52100448260262 L528.3609357075779,82.90585491370808 M528.3609357075779,82.90585491370808 L530.6704673225256,84.70829026671413 M530.6704673225256,84.70829026671413 L532.8639096072784,86.88523546681017 M532.8639096072784,86.88523546681017 L534.8882421195265,89.38411672924377 M534.8882421195265,89.38411672924377 L536.6945196106624,92.14473626861962 M536.6945196106624,92.14473626861962 L538.239089109531,95.1005009376729 M538.239089109531,95.1005009376729 L539.4846559093896,98.17990217154176 M539.4846559093896,98.17990217154176 L540.4012365930178,101.3086459407429 M540.4012365930178,101.3086459407429 L540.9668303410738,104.4110399402486 M540.9668303410738,104.4110399402486 L541.1680228970465,107.41242519752439 M537.9647855975086,75.52094684437219 L540.3342860144774,76.90223030542995 M540.3342860144774,76.90223030542995 L542.6429617012043,78.70078850701373 M542.6429617012043,78.70078850701373 L544.8350602558041,80.87363965318542 M544.8350602558041,80.87363965318542 L546.857594296122,83.36830917987879 M546.857594296122,83.36830917987879 L548.6616624094756,86.1247014634879 M548.6616624094756,86.1247014634879 L550.203665394157,89.07632610635244 M550.203665394157,89.07632610635244 L551.4463710501404,92.15177543399005 M551.4463710501404,92.15177543399005 L552.359865226756,95.27685152665237 M552.359865226756,95.27685152665237 L552.9222218746359,98.37595141845395 M552.9222218746359,98.37595141845395 L553.1201045551034,101.37449586881627 M540.9538805950542,126.10627442963943 L552.8845897960655,120.05216776771078 M541.1680228970465,107.41242519752439 L540.9538805950542,126.10627442963943 M553.1201045551034,101.37449586881627 L552.8845897960655,120.05216776771078 M540.9538805950542,126.10627442963943 L540.9538891218856,126.36825068815847 M540.9538891218856,126.36825068815847 L540.9509042413963,126.62881330468372 M540.9509042413963,126.62881330468372 L540.9449279239109,126.88781027296284 M552.8845897960655,120.05216776771078 L552.884300360709,120.31391500897558 M552.884300360709,120.31391500897558 L552.8810175730957,120.57425285559111 M552.8810175730957,120.57425285559111 L552.8747435771252,120.83302943243734" stroke="black"  stroke-width="4"  fill="red"/>
<path d="M253.9863518747362,80.98382361976849 L258.0486208655236,89.10150065241459 M273.5165653045455,96.51390707017936 L277.60753859405133,104.64282130592528 M253.9863518747362,80.98382361976849 L254.32211432826097,83.68578857734212 M254.32211432826097,83.68578857734212 L255.1039157217481,86.25811466300121 M255.1039157217481,86.25811466300121 L256.3141365396978,88.64426599533158 M256.3141365396978,88.64426599533158 L257.925721420273,90.7917358183218 M257.925721420273,90.7917358183218 L259.9028073784917,92.65336595419865 M259.9028073784917,92.65336595419865 L262.20157722463034,94.18841964590786 M262.20157722463034,94.18841964590786 L264.7711921865762,95.3632663425758 M264.7711921865762,95.3632663425758 L267.5549885749947,96.15244280076814 M267.5549885749947,96.15244280076814 L270.49163911960096,96.53872044585762 M270.49163911960096,96.53872044585762 L273.5165653045455,96.51390707017936 M258.0486208655236,89.10150065241459 L258.38392835967613,91.80654542694441 M258.38392835967613,91.80654542694441 L259.1661174029098,94.38163100291405 M259.1661174029098,94.38163100291405 L260.37756590859624,96.77016497506747 M260.37756590859624,96.77016497506747 L261.99117893368674,98.91958306068904 M261.99117893368674,98.91958306068904 L263.97105869612915,100.78269063886847 M263.97105869612915,100.78269063886847 L266.2733217640933,102.31871755547229 M266.2733217640933,102.31871755547229 L268.84705182640135,103.49401281212442 M268.84705182640135,103.49401281212442 L271.6354980571446,104.28310634061211 M271.6354980571446,104.28310634061211 L274.57721983225997,104.66876655838269 M274.57721983225997,104.66876655838269 L277.60753859405133,104.64282130592528 M274.80514006436533,96.37972450359183 L278.8984589228684,104.5080110674869 M273.5165653045455,96.51390707017936 L273.945910703407,96.47727985656815 M273.945910703407,96.47727985656815 L274.3754929157526,96.43257036676351 M274.3754929157526,96.43257036676351 L274.80514006436533,96.37972450359183 M277.60753859405133,104.64282130592528 L278.0376623488812,104.60599445971309 M278.0376623488812,104.60599445971309 L278.4680302546709,104.56107764327402 M278.4680302546709,104.56107764327402 L278.8984589228684,104.5080110674869 M373.6355837911862,83.28845184413484 L377.90928551739427,91.36538577462312 M274.80514006436533,96.37972450359183 L373.6355837911862,83.28845184413484 M278.8984589228684,104.5080110674869 L377.90928551739427,91.36538577462312 M376.79323003027343,738.9957954625768 L380.8005052556519,747.7593656801939 M373.6355837911862,83.28845184413484 L376.79323003027343,738.9957954625768 M377.90928551739427,91.36538577462312 L380.8005052556519,747.7593656801939 M246.8988270706781,758.936586035948 L250.6839123276795,767.7734295127051 M376.79323003027343,738.9957954625768 L246.8988270706781,758.936586035948 M380.8005052556519,747.7593656801939 L250.6839123276795,767.7734295127051 M244.4890215464182,759.4345805214775 L248.26991248317177,768.2729031033064 M246.8988270706781,758.936586035948 L244.4890215464182,759.4345805214775 M250.6839123276795,767.7734295127051 L248.26991248317177,768.2729031033064 M246.28464241427952,791.3670060250774 L250.05605703980453,800.234023020382 M244.4890215464182,759.4345805214775 L241.57138718816418,760.3917695966048 M241.57138718816418,760.3917695966048 L238.78945537917966,761.7042666000057 M238.78945537917966,761.7042666000057 L236.21064754085424,763.3402591052627 M236.21064754085424,763.3402591052627 L233.89741979576462,765.2600516326595 M233.89741979576462,765.2600516326595 L231.90576463041612,767.4170685843538 M231.90576463041612,767.4170685843538 L230.28377815066466,769.7589726129028 M230.28377815066466,769.7589726129028 L229.07055777097426,772.2289914051942 M229.07055777097426,772.2289914051942 L228.29521263870623,774.7672905428499 M228.29521263870623,774.7672905428499 L227.97617422826997,777.3124657283348 M227.97617422826997,777.3124657283348 L228.1208326795769,779.8030161871507 M228.1208326795769,779.8030161871507 L228.72533810091207,782.1788657045241 M228.72533810091207,782.1788657045241 L229.7747247243386,784.3828124727584 M229.7747247243386,784.3828124727584 L231.24333749451154,786.3618760522504 M231.24333749451154,786.3618760522504 L233.09547420618202,788.0685785374206 M233.09547420618202,788.0685785374206 L235.28625548332087,789.4620780838447 M235.28625548332087,789.4620780838447 L237.76278247821145,790.5090992225225 M237.76278247821145,790.5090992225225 L240.465335197554,791.1847152579032 M240.465335197554,791.1847152579032 L243.3288878689049,791.4729227581313 M243.3288878689049,791.4729227581313 L246.28464241427952,791.3670060250774 M248.26991248317177,768.2729031033064 L245.3470655320007,769.2322145473672 M245.3470655320007,769.2322145473672 L242.5600077944806,770.5471065076198 M242.5600077944806,770.5471065076198 L239.97627827725125,772.1857123134997 M239.97627827725125,772.1857123134997 L237.65847457740782,774.108260386311 M237.65847457740782,774.108260386311 L235.6626713635025,776.2681241974046 M235.6626713635025,776.2681241974046 L234.03710116301204,778.6128845244845 M234.03710116301204,778.6128845244845 L232.82091269473642,781.0856952098281 M232.82091269473642,781.0856952098281 L232.04329261174126,783.6266742287992 M232.04329261174126,783.6266742287992 L231.72274119358798,786.1743358029617 M231.72274119358798,786.1743358029617 L231.86667671554744,788.6671230791717 M231.86667671554744,788.6671230791717 L232.47126545251538,791.044905986857 M232.47126545251538,791.044905986857 L233.52153825841273,793.2504364943014 M233.52153825841273,793.2504364943014 L234.99181739739913,795.230696548402 M234.99181739739913,795.230696548402 L236.84635935426445,796.9381801726545 M236.84635935426445,796.9381801726545 L239.04023316460567,798.3320234924771 M239.04023316460567,798.3320234924771 L241.5204433145964,799.3789559871934 M241.5204433145964,799.3789559871934 L244.22720253458,800.0540416521943 M244.22720253458,800.0540416521943 L247.09537669601946,800.3412947086283 M247.09537669601946,800.3412947086283 L250.05605703980453,800.234023020382 M247.48958116364486,791.2126087724115 L251.26305030721952,800.0789735712215 M246.28464241427952,791.3670060250774 L247.48958116364486,791.2126087724115 M250.05605703980453,800.234023020382 L251.26305030721952,800.0789735712215 M395.9581884594429,768.2668334853615 L399.9846022458532,777.0491911020902 M247.48958116364486,791.2126087724115 L395.9581884594429,768.2668334853615 M251.26305030721952,800.0789735712215 L399.9846022458532,777.0491911020902 M398.3387914903133,767.7723381568367 L402.3692948547885,776.5532356023039 M395.9581884594429,768.2668334853615 L396.7536940982487,768.1298078557411 M396.7536940982487,768.1298078557411 L397.5476901447266,767.9648797414904 M397.5476901447266,767.9648797414904 L398.3387914903133,767.7723381568367 M399.9846022458532,777.0491911020902 L400.7814630104565,776.9117030879114 M400.7814630104565,776.9117030879114 L401.5768220054623,776.7462880521357 M401.5768220054623,776.7462880521357 L402.3692948547885,776.5532356023039 M414.9309239441319,749.2646841086319 L418.99625712315475,758.0216403422155 M398.3387914903133,767.7723381568367 L401.3197703614264,766.7851409110488 M401.3197703614264,766.7851409110488 L404.16177216651846,765.423253119923 M404.16177216651846,765.423253119923 L406.7920591753535,763.7215246689691 M406.7920591753535,763.7215246689691 L409.1432781361033,761.7234626512693 M409.1432781361033,761.7234626512693 L411.1551503668647,759.4801397949861 M411.1551503668647,759.4801397949861 L412.7760073933701,757.048918688918 M412.7760073933701,757.048918688918 L413.96410892091785,754.4920046161235 M413.96410892091785,754.4920046161235 L414.68872082295866,751.8748883910226 M414.68872082295866,751.8748883910226 L414.9309239441319,749.2646841086319 M402.3692948547885,776.5532356023039 L405.35554579205365,775.5638756616858 M405.35554579205365,775.5638756616858 L408.2027495663938,774.1995430595003 M408.2027495663938,774.1995430595003 L410.8380382083994,772.4951486398668 M410.8380382083994,772.4951486398668 L413.1939280830589,770.4942675516234 M413.1939280830589,770.4942675516234 L415.2100226959082,768.2480446518057 M415.2100226959082,768.2480446518057 L416.8345449078809,765.8139155940123 M416.8345449078809,765.8139155940123 L418.025660954604,763.2541596477098 M418.025660954604,763.2541596477098 L418.75255825902354,760.6343405154169 M418.75255825902354,760.6343405154169 L418.99625712315475,758.0216403422155 M414.33241764265284,59.45007846490978 L418.6878280315594,67.48422913511672 M414.9309239441319,749.2646841086319 L414.33241764265284,59.45007846490978 M418.99625712315475,758.0216403422155 L418.6878280315594,67.48422913511672 M395.1831343124667,43.48687181840296 L399.51146065795837,51.50904640233574 M414.33241764265284,59.45007846490978 L414.0988239431794,56.70389619773795 M414.0988239431794,56.70389619773795 L413.4079003800695,54.0794164522884 M413.4079003800695,54.0794164522884 L412.2749354940918,51.636371705704846 M412.2749354940918,51.636371705704846 L410.7252813236337,49.43044873127377 M410.7252813236337,49.43044873127377 L408.79380924977096,47.51191164227305 M408.79380924977096,47.51191164227305 L406.52414424531986,45.92462187710015 M406.52414424531986,45.92462187710015 L403.9676976799227,44.70500235771465 M403.9676976799227,44.70500235771465 L401.18250563292116,43.881017697995105 M401.18250563292116,43.881017697995105 L398.2319169952164,43.47185592846881 M398.2319169952164,43.47185592846881 L395.1831343124667,43.48687181840296 M418.6878280315594,67.48422913511672 L418.4549819447047,64.73489238801574 M418.4549819447047,64.73489238801574 L417.7639475989236,62.1075635703603 M417.7639475989236,62.1075635703603 L416.6300156934365,59.66204125561205 M416.6300156934365,59.66204125561205 L415.07855841064134,57.45406847377535 M415.07855841064134,57.45406847377535 L413.1444868577971,55.533956267361816 M413.1444868577971,55.533956267361816 L410.8714833119381,53.94560439928887 M410.8714833119381,53.94560439928887 L408.3110351340992,52.72545986013262 M408.3110351340992,52.72545986013262 L405.5212696869052,51.901500936102536 M405.5212696869052,51.901500936102536 L402.5656376457881,51.49291603412445 M402.5656376457881,51.49291603412445 L399.51146065795837,51.50904640233574 M393.9003125808777,43.61864957504696 L398.2263148939656,51.64144264312415 M395.1831343124667,43.48687181840296 L394.75583028342214,43.52265332943068 M394.75583028342214,43.52265332943068 L394.32815989090983,43.56656207255048 M394.32815989090983,43.56656207255048 L393.9003125808777,43.61864957504696 M399.51146065795837,51.50904640233574 L399.08338623773216,51.545024143278965 M399.08338623773216,51.545024143278965 L398.6549413806293,51.58913889361435 M398.6549413806293,51.58913889361435 L398.2263148939656,51.64144264312415 M294.8395179034457,56.62280778460752 L298.9843188739634,64.69676204440071 M393.9003125808777,43.61864957504696 L294.8395179034457,56.62280778460752 M398.2263148939656,51.64144264312415 L298.9843188739634,64.69676204440071 M294.83468138339504,56.23350788660025 L298.9796291902698,64.30700041774298 M294.8395179034457,56.62280778460752 L294.83468138339504,56.23350788660025 M298.9843188739634,64.69676204440071 L298.9796291902698,64.30700041774298 M274.0023465310891,40.69438363102711 L278.11625408859106,48.756821142788795 M294.83468138339504,56.23350788660025 L294.4861457900594,53.409533915427176 M294.4861457900594,53.409533915427176 L293.65281302112356,50.72573638624414 M293.65281302112356,50.72573638624414 L292.3542431873083,48.24641001363085 M292.3542431873083,48.24641001363085 L290.62116661530234,46.03136191714549 M290.62116661530234,46.03136191714549 L288.49483849914446,44.13390351114316 M288.49483849914446,44.13390351114316 L286.0260197009552,42.600000081094606 M286.0260197009552,42.600000081094606 L283.2738195740259,41.466755731133105 M283.2738195740259,41.466755731133105 L280.3042889177885,40.7616465407321 M280.3042889177885,40.7616465407321 L277.18880859174044,40.5020851308189 M277.18880859174044,40.5020851308189 L274.0023465310891,40.69438363102711 M298.9796291902698,64.30700041774298 L298.6315996292596,61.4797884134594 M298.6315996292596,61.4797884134594 L297.7978552840242,58.79309351427952 M297.7978552840242,58.79309351427952 L296.49795711700887,56.311276490945886 M296.49795711700887,56.311276490945886 L294.76266567829964,54.09420521562697 M294.76266567829964,54.09420521562697 L292.6332954699303,52.19524426523725 M292.6332954699303,52.19524426523725 L290.16067556340727,50.66039447396662 M290.16067556340727,50.66039447396662 L287.4040060240535,49.526783837143455 M287.4040060240535,49.526783837143455 L284.42944868414514,48.82190018211628 M284.42944868414514,48.82190018211628 L281.30849422797553,48.56314632890479 M281.30849422797553,48.56314632890479 L278.11625408859106,48.756821142788795 M253.66880821107713,61.637026460055665 L257.73808495755566,69.73182493296423 M274.0023465310891,40.69438363102711 L270.8216940677795,41.334170673374786 M270.8216940677795,41.334170673374786 L267.72351049691764,42.40603100909419 M267.72351049691764,42.40603100909419 L264.78251855824294,43.88432953989587 M264.78251855824294,43.88432953989587 L262.069602077937,45.7332335707049 M262.069602077937,45.7332335707049 L259.65011715723097,47.908185692314305 M259.65011715723097,47.908185692314305 L257.5822813740467,50.35674260648551 M257.5822813740467,50.35674260648551 L255.91574911033288,53.01971017777947 M255.91574911033288,53.01971017777947 L254.6904275255654,55.83295666115032 M254.6904275255654,55.83295666115032 L253.93551128360323,58.728570567134 M253.93551128360323,58.728570567134 L253.66880821107713,61.637026460055665 M278.11625408859106,48.756821142788795 L274.9296557280502,49.39851878863965 M274.9296557280502,49.39851878863965 L271.8255063577053,50.47277990642607 M271.8255063577053,50.47277990642607 L268.8786621847058,51.95390595894037 M268.8786621847058,51.95390595894037 L266.16016012794194,53.80600101934726 M266.16016012794194,53.80600101934726 L263.7354877335182,55.98442831009203 M263.7354877335182,55.98442831009203 L261.66298411405296,58.43665817295317 M261.66298411405296,58.43665817295317 L259.992427230614,61.10341260644941 M259.992427230614,61.10341260644941 L258.76381324858124,63.92046427244139 M258.76381324858124,63.92046427244139 L258.0064078719774,66.8198055868844 M258.0064078719774,66.8198055868844 L257.73808495755566,69.73182493296423 M253.97360877752726,80.20743238573777 L258.03615903522973,88.32419404963741 M253.66880821107713,61.637026460055665 L253.97360877752726,80.20743238573777 M257.73808495755566,69.73182493296423 L258.03615903522973,88.32419404963741 M253.97360877752726,80.20743238573777 L253.97384167294152,80.46674517351653 M253.97384167294152,80.46674517351653 L253.97809029855713,80.7255925522233 M253.97809029855713,80.7255925522233 L253.9863518747362,80.98382361976849 M258.03615903522973,88.32419404963741 L258.0362945440732,88.58381594335202 M258.0362945440732,88.58381594335202 L258.0404493961155,88.8429685043514 M258.0404493961155,88.8429685043514 L258.0486208655236,89.10150065241459" stroke="black"  stroke-width="4"  fill="red"/></svg>