<svg viewBox="0 0 800 800" xmlns="http://www.w3.org/2000/svg"><path d="M495.4770794986601,14.342618421919894 L475.25629570665217,11.574473322817369 M489.16890520731073,48.504078082304204 L468.9407847917056,45.71734569988655 M495.4770794986601,14.342618421919894 L495.36706253959517,17.860094955472107 M495.36706253959517,17.860094955472107 L495.11371877569536,21.573394470484857 M495.11371877569536,21.573394470484857 L494.72265389943414,25.40110288136225 M494.72265389943414,25.40110288136225 L494.20246241400287,29.259462759245082 M494.20246241400287,29.259462759245082 L493.5645554388784,33.06396475799369 M493.5645554388784,33.06396475799369 L492.8228665570895,36.731444892533545 M492.8228665570895,36.731444892533545 L491.9936236588333,40.18154702763832 M491.9936236588333,40.18154702763832 L491.09492285835324,43.33862593211012 M491.09492285835324,43.33862593211012 L490.1464280443758,46.13333021777072 M490.1464280443758,46.13333021777072 L489.16890520731073,48.504078082304204 M475.25629570665217,11.574473322817369 L475.1507828712358,15.090792813351015 M475.1507828712358,15.090792813351015 L474.90086020622323,18.802681311236995 M474.90086020622323,18.802681311236995 L474.51204948772477,22.62875064463549 M474.51204948772477,22.62875064463549 L473.99291040003067,26.48528613836436 M473.99291040003067,26.48528613836436 L473.35481704668854,30.287810877658103 M473.35481704668854,30.287810877658103 L472.6117119037369,33.953206151871484 M472.6117119037369,33.953206151871484 L471.7798535826599,37.4011611318914 M471.7798535826599,37.4011611318914 L470.877390240627,40.556074898082954 M470.877390240627,40.556074898082954 L469.9240817433608,43.34865053789184 M469.9240817433608,43.34865053789184 L468.9407847917056,45.71734569988655 M488.75232390102946,49.365325217618135 L468.521506391257,46.57776008348554 M489.16890520731073,48.504078082304204 L489.03010729916105,48.80081287794417 M489.03010729916105,48.80081287794417 L488.8912349125982,49.08791897928893 M488.8912349125982,49.08791897928893 L488.75232390102946,49.365325217618135 M468.9407847917056,45.71734569988655 L468.80110383741345,46.01380028764328 M468.80110383741345,46.01380028764328 L468.6613275446038,46.30062635104764 M468.6613275446038,46.30062635104764 L468.521506391257,46.57776008348554 M456.32938777820124,112.97075493963138 L435.88340099027323,110.11897706613968 M488.75232390102946,49.365325217618135 L456.32938777820124,112.97075493963138 M468.521506391257,46.57776008348554 L435.88340099027323,110.11897706613968 M455.25421753024733,648.9073482589222 L435.6474471144271,645.9115751727043 M456.32938777820124,112.97075493963138 L455.25421753024733,648.9073482589222 M435.88340099027323,110.11897706613968 L435.6474471144271,645.9115751727043 M498.7016523936821,555.5762113849418 L479.3713488573291,552.6706196148907 M455.25421753024733,648.9073482589222 L498.7016523936821,555.5762113849418 M435.6474471144271,645.9115751727043 L479.3713488573291,552.6706196148907 M499.49176961013103,554.0399929014858 L480.1667599190185,551.1359921509986 M498.7016523936821,555.5762113849418 L499.49176961013103,554.0399929014858 M479.3713488573291,552.6706196148907 L480.1667599190185,551.1359921509986 M498.87297890263494,595.8908869914782 L479.6083431296253,592.9759122232635 M499.49176961013103,554.0399929014858 L500.4472958941153,552.6276091170513 M500.4472958941153,552.6276091170513 L501.3572458485801,551.7853242953629 M501.3572458485801,551.7853242953629 L502.1997054147159,551.5327721382844 M502.1997054147159,551.5327721382844 L502.95441166247326,551.8752969101745 M502.95441166247326,551.8752969101745 L503.6033440867143,552.8038871134048 M503.6033440867143,552.8038871134048 L504.1309874835325,554.2954777750599 M504.1309874835325,554.2954777750599 L504.52481333267133,556.3135414811644 M504.52481333267133,556.3135414811644 L504.7755450653086,558.8090644998616 M504.7755450653086,558.8090644998616 L504.8773067699062,561.7217227087517 M504.8773067699062,561.7217227087517 L504.82777549286544,564.9813906599784 M504.82777549286544,564.9813906599784 L504.6282494135138,568.5097950677634 M504.6282494135138,568.5097950677634 L504.28360731935425,572.222367010493 M504.28360731935425,572.222367010493 L503.80212542891627,576.0302559194256 M503.80212542891627,576.0302559194256 L503.1953305861137,579.8423973599429 M503.1953305861137,579.8423973599429 L502.4777378478404,583.5676345670825 M502.4777378478404,583.5676345670825 L501.6665078911466,587.1168538091965 M501.6665078911466,587.1168538091965 L500.7809773331246,590.4050587783786 M500.7809773331246,590.4050587783786 L499.84231107610634,593.3533677563405 M499.84231107610634,593.3533677563405 L498.87297890263494,595.8908869914782 M480.1667599190185,551.1359921509986 L481.12939026996503,549.7254215892066 M481.12939026996503,549.7254215892066 L482.04690368698374,548.8847420252232 M482.04690368698374,548.8847420252232 L482.8971940010234,548.6335540142959 M482.8971940010234,548.6335540142959 L483.65983557965615,548.977154606753 M483.65983557965615,548.977154606753 L484.316581153038,549.9065271230918 M484.316581153038,549.9065271230918 L484.8517540379306,551.3985634356457 M484.8517540379306,551.3985634356457 L485.2526542762772,553.4167509952758 M485.2526542762772,553.4167509952758 L485.50979155524163,555.9120686099438 M485.50979155524163,555.9120686099438 L485.61717246949866,558.8241875586161 M485.61717246949866,558.8241875586161 L485.57233116942103,562.0830005802281 M485.57233116942103,562.0830005802281 L485.3764541773515,565.6102549296306 M485.3764541773515,565.6102549296306 L485.0343335411627,569.3214091273891 M485.0343335411627,569.3214091273891 L484.55418560355776,573.1276462949668 M484.55418560355776,573.1276462949668 L483.94750554264755,576.9379411779828 M483.94750554264755,576.9379411779828 L483.2288146046315,580.6611757586859 M483.2288146046315,580.6611757586859 L482.41527303003005,584.208298851376 M482.41527303003005,584.208298851376 L481.52629884400926,587.4943489703772 M481.52629884400926,587.4943489703772 L480.5831299077573,590.4405008148258 M480.5831299077573,590.4405008148258 L479.6083431296253,592.9759122232635 M498.4776756709276,596.7858011704163 L479.2105890318408,593.869997343626 M498.87297890263494,595.8908869914782 L498.4776756709276,596.7858011704163 M479.6083431296253,592.9759122232635 L479.2105890318408,593.869997343626 M448.66854152376794,704.5019521512515 L429.08562447167554,701.4822897981962 M498.4776756709276,596.7858011704163 L448.66854152376794,704.5019521512515 M479.2105890318408,593.869997343626 L429.08562447167554,701.4822897981962 M447.8517284912828,706.1054569413396 L428.263383240538,703.084114379402 M448.66854152376794,704.5019521512515 L448.3956331778935,705.074018368736 M448.3956331778935,705.074018368736 L448.12320415095286,705.6088341257938 M448.12320415095286,705.6088341257938 L447.8517284912828,706.1054569413396 M429.08562447167554,701.4822897981962 L428.81096040362706,702.0537856801504 M428.81096040362706,702.0537856801504 L428.5367207402784,702.5880418051447 M428.5367207402784,702.5880418051447 L428.263383240538,703.084114379402 M442.15662614134703,697.8484389525174 L422.4996162872644,694.8201099944226 M447.8517284912828,706.1054569413396 L446.82843719549,707.6403741181736 M446.82843719549,707.6403741181736 L445.8523892748675,708.5621777152712 M445.8523892748675,708.5621777152712 L444.94871807855696,708.8463928780436 M444.94871807855696,708.8463928780436 L444.14076459982704,708.4848568125419 M444.14076459982704,708.4848568125419 L443.44946807203087,707.4860126187396 M443.44946807203087,707.4860126187396 L442.89281101259434,705.8747845123632 M442.89281101259434,705.8747845123632 L442.48533572714666,703.6920103227397 M442.48533572714666,703.6920103227397 L442.2377503190105,700.9934612163471 M442.2377503190105,700.9934612163471 L442.15662614134703,697.8484389525174 M428.263383240538,703.084114379402 L427.23253809456776,704.6170425531337 M427.23253809456776,704.6170425531337 L426.2484243812822,705.5370802505709 M426.2484243812822,705.5370802505709 L425.3363847878053,705.8197970112161 M425.3363847878053,705.8197970112161 L424.519974325319,705.4570715152743 M424.519974325319,705.4570715152743 L423.82034851453585,704.4573772298188 M423.82034851453585,704.4573772298188 L423.25570596898564,702.8456614918038 M423.25570596898564,702.8456614918038 L422.84079530534405,700.6627748674437 M422.84079530534405,700.6627748674437 L422.58651624283044,697.9644923802562 M422.58651624283044,697.9644923802562 L422.4996162872644,694.8201099944226 M442.7166221803449,116.96057070228846 L422.1444110737671,114.0881761950248 M442.15662614134703,697.8484389525174 L442.7166221803449,116.96057070228846 M422.4996162872644,694.8201099944226 L422.1444110737671,114.0881761950248 M449.16625570536655,81.66032594647959 L428.60087868586146,78.80737801403592 M442.7166221803449,116.96057070228846 L442.7978114719056,113.38278325703368 M442.7978114719056,113.38278325703368 L443.0329875319639,109.58054832612345 M443.0329875319639,109.58054832612345 L443.4168493822668,105.64077195983975 M443.4168493822668,105.64077195983975 L443.9406585361565,101.65357295389663 M443.9406585361565,101.65357295389663 L444.592439744872,97.71023897570808 M444.592439744872,97.71023897570808 L445.35726545127903,93.9011253972347 M445.35726545127903,93.9011253972347 L446.2175981929934,90.31324623588125 M446.2175981929934,90.31324623588125 L447.1537119977024,87.02872905509821 M447.1537119977024,87.02872905509821 L448.14415582858317,84.12235960961698 M448.14415582858317,84.12235960961698 L449.16625570536655,81.66032594647959 M422.1444110737671,114.0881761950248 L422.2207200845182,110.51154191754824 M422.2207200845182,110.51154191754824 L422.4521598696934,106.71074662598278 M422.4521598696934,106.71074662598278 L422.8335131718323,102.77266249026917 M422.8335131718323,102.77266249026917 L423.3561012379544,98.7873695180673 M423.3561012379544,98.7873695180673 L424.00797819083596,94.84611135703432 M424.00797819083596,94.84611135703432 L424.7742106090089,91.03919592282358 M424.7742106090089,91.03919592282358 L425.6372315588812,87.45358606996774 M425.6372315588812,87.45358606996774 L426.57725144949086,84.17135674128394 M426.57725144949086,84.17135674128394 L427.57272958724025,81.26724272580867 M427.57272958724025,81.26724272580867 L428.60087868586146,78.80737801403592 M449.59593318921645,80.77924633231078 L429.03334157506634,77.92716605921999 M449.16625570536655,81.66032594647959 L449.30940559957816,81.35678328299718 M449.30940559957816,81.35678328299718 L449.4526517210493,81.06306512759352 M449.4526517210493,81.06306512759352 L449.59593318921645,80.77924633231078 M428.60087868586146,78.80737801403592 L428.7449410847993,78.50412713572462 M428.7449410847993,78.50412713572462 L428.8891162385953,78.2106980307808 M428.8891162385953,78.2106980307808 L429.03334157506634,77.92716605921999 M482.285330208523,17.168282926348923 L461.94035977619166,14.380796710506388 M449.59593318921645,80.77924633231078 L482.285330208523,17.168282926348923 M429.03334157506634,77.92716605921999 L461.94035977619166,14.380796710506388 M482.2872147709107,16.69294390075754 L461.9415086029045,13.905597040650889 M482.285330208523,17.168282926348923 L482.2872147709107,16.69294390075754 M461.94035977619166,14.380796710506388 L461.9415086029045,13.905597040650889 M489.055548632209,-18.51248903824444 L468.71998456381397,-21.28021287445415 M482.2872147709107,16.69294390075754 L482.40283951957844,12.996937243937339 M482.40283951957844,12.996937243937339 L482.676011852318,9.087721882964217 M482.676011852318,9.087721882964217 L483.1001850170186,5.059774992494738 M483.1001850170186,5.059774992494738 L483.6651650543571,1.0104281582774206 M483.6651650543571,1.0104281582774206 L484.35727999497414,-2.9624521142586104 M484.35727999497414,-2.9624521142586104 L485.159803721133,-6.762714896304033 M485.159803721133,-6.762714896304033 L486.05330230248614,-10.298687073309168 M486.05330230248614,-10.298687073309168 L487.0161347830656,-13.48497319174777 M487.0161347830656,-13.48497319174777 L488.0249999994021,-16.245013658912114 M488.0249999994021,-16.245013658912114 L489.055548632209,-18.51248903824444 M461.9415086029045,13.905597040650889 L462.0523971592558,10.210816310558073 M462.0523971592558,10.210816310558073 L462.32202623545624,6.303107775969693 M462.32202623545624,6.303107775969693 L462.74394481644663,2.2769167387271523 M462.74394481644663,2.2769167387271523 L463.30801386622034,-1.7704679887276598 M463.30801386622034,-1.7704679887276598 L464.00057409837166,-5.7412325214289694 M464.00057409837166,-5.7412325214289694 L464.8048935029002,-9.53927511783337 M464.8048935029002,-9.53927511783337 L465.701494224932,-13.072976673614278 M465.701494224932,-13.072976673614278 L466.6686551771239,-16.256999322299407 M466.6686551771239,-16.256999322299407 L467.68298392770424,-19.014831057007996 M467.68298392770424,-19.014831057007996 L468.71998456381397,-21.28021287445415 M495.59399592999296,-9.198779067373323 L475.33699264894915,-11.960042601366808 M489.055548632209,-18.51248903824444 L490.08290436392144,-20.233359460734903 M490.08290436392144,-20.233359460734903 L491.0823629750689,-21.366736273488073 M491.0823629750689,-21.366736273488073 L492.0299173563602,-21.886222039675772 M492.0299173563602,-21.886222039675772 L492.9028917393301,-21.780038813194608 M492.9028917393301,-21.780038813194608 L493.68046238228084,-21.05167221009009 M493.68046238228084,-21.05167221009009 L494.3441375445434,-19.719271899305568 M494.3441375445434,-19.719271899305568 L494.87819725623723,-17.815596780039925 M494.87819725623723,-17.815596780039925 L495.27004381306057,-15.386761561110461 M495.27004381306057,-15.386761561110461 L495.5105018470695,-12.491300877354604 M495.5105018470695,-12.491300877354604 L495.59399592999296,-9.198779067373323 M468.71998456381397,-21.28021287445415 L469.75462892992334,-22.9991526958176 M469.75462892992334,-22.9991526958176 L470.76203191325317,-24.130810337820833 M470.76203191325317,-24.130810337820833 L471.7180085449596,-24.64882192868663 M471.7180085449596,-24.64882192868663 L472.59966629330705,-24.541451365518753 M472.59966629330705,-24.541451365518753 L473.3859774176768,-23.812209497975573 M473.3859774176768,-23.812209497975573 L474.05824568105976,-22.479263764731797 M474.05824568105976,-22.479263764731797 L474.6005314633467,-20.575392417583544 M474.6005314633467,-20.575392417583544 L475.00005041695715,-18.14670943183353 M475.00005041695715,-18.14670943183353 L475.2474540668668,-15.251740513149173 M475.2474540668668,-15.251740513149173 L475.33699264894915,-11.960042601366808 M495.4817717686302,13.397818865233091 L475.2595343631947,10.629949133868593 M495.59399592999296,-9.198779067373323 L495.4817717686302,13.397818865233091 M475.33699264894915,-11.960042601366808 L475.2595343631947,10.629949133868593 M495.4817717686302,13.397818865233091 L495.4814985637054,13.710264210124421 M495.4814985637054,13.710264210124421 L495.4799345954757,14.025166717997877 M495.4799345954757,14.025166717997877 L495.4770794986601,14.342618421919894 M475.2595343631947,10.629949133868593 L475.25974960286646,10.942302796601382 M475.25974960286646,10.942302796601382 L475.25867012507774,11.257113524089903 M475.25867012507774,11.257113524089903 L475.25629570665217,11.574473322817369" stroke="black"  stroke-width="4"  fill="red"/>
<path d="M578.659290069512,205.9203175733562 L593.7266126814677,197.8307131428205 M560.2980621592279,218.85900649309605 L575.3404051843728,210.7784631934062 M578.659290069512,205.9203175733562 L578.3463484030061,209.1774044810038 M578.3463484030061,209.1774044810038 L577.6130726278969,212.12663296694856 M577.6130726278969,212.12663296694856 L576.476097077249,214.7029332249187 M576.476097077249,214.7029332249187 L574.9609770149195,216.84973399345225 M574.9609770149195,216.84973399345225 L573.1016193667479,218.5199804241393 M573.1016193667479,218.5199804241393 L570.9394459414566,219.67741551380556 M570.9394459414566,219.67741551380556 L568.5224643527906,220.2970443294501 M568.5224643527906,220.2970443294501 L565.9041798973121,220.36578259272773 M565.9041798973121,220.36578259272773 L563.1424367291137,219.88272980089016 M563.1424367291137,219.88272980089016 L560.2980621592279,218.85900649309605 M593.7266126814677,197.8307131428205 L593.4097915066732,201.0855071070124 M593.4097915066732,201.0855071070124 L592.672753072136,204.03313824405245 M592.672753072136,204.03313824405245 L591.5322143382646,206.60857140154263 M591.5322143382646,206.60857140154263 L590.0138084705474,208.75525337972547 M590.0138084705474,208.75525337972547 L588.1515141699057,210.42613062411976 M588.1515141699057,210.42613062411976 L585.9868170393638,211.5849305786999 M585.9868170393638,211.5849305786999 L583.5677795196893,212.20662660479988 M583.5677795196893,212.20662660479988 L580.9479514659532,212.27808729135472 M580.9479514659532,212.27808729135472 L578.1852103888061,211.79835068092962 M578.1852103888061,211.79835068092962 L575.3404051843728,210.7784631934062 M559.0865373388878,218.2691382390172 L574.1288715726964,210.19035152354746 M560.2980621592279,218.85900649309605 L559.8943866727998,218.6725712879709 M559.8943866727998,218.6725712879709 L559.4904801184442,218.47589847423777 M559.4904801184442,218.47589847423777 L559.0865373388878,218.2691382390172 M575.3404051843728,210.7784631934062 L574.9367152919964,210.59260521285103 M574.9367152919964,210.59260521285103 L574.5328058273212,210.39651803644605 M574.5328058273212,210.39651803644605 L574.1288715726964,210.19035152354746 M466.6635044341433,169.8048146677977 L481.7079979449215,161.86221788579303 M559.0865373388878,218.2691382390172 L466.6635044341433,169.8048146677977 M574.1288715726964,210.19035152354746 L481.7079979449215,161.86221788579303 M465.14967938145156,708.5851088778151 L479.5736274612538,700.2480816382354 M466.6635044341433,169.8048146677977 L465.14967938145156,708.5851088778151 M481.7079979449215,161.86221788579303 L479.5736274612538,700.2480816382354 M589.7327786970235,780.1277797422425 L604.1534954927554,771.5977390933049 M465.14967938145156,708.5851088778151 L589.7327786970235,780.1277797422425 M479.5736274612538,700.2480816382354 L604.1534954927554,771.5977390933049 M592.0613911282567,781.6323036511944 L606.4818207139219,773.0985196958902 M589.7327786970235,780.1277797422425 L592.0613911282567,781.6323036511944 M604.1534954927554,771.5977390933049 L606.4818207139219,773.0985196958902 M590.35629312212,822.7303565891805 L604.7289633102943,814.1705904739481 M592.0613911282567,781.6323036511944 L594.8819158867418,783.9175624102198 M594.8819158867418,783.9175624102198 L597.572482181385,786.620000793434 M597.572482181385,786.620000793434 L600.0677377464119,789.6742300177776 M600.0677377464119,789.6742300177776 L602.3070626696697,793.0062090226234 M602.3070626696697,793.0062090226234 L604.2360158894198,796.5350551444833 M604.2360158894198,796.5350551444833 L605.8078096449437,800.1750929665907 M605.8078096449437,800.1750929665907 L606.9843322500079,803.8379186733273 M606.9843322500079,803.8379186733273 L607.7372092881205,807.4346619411881 M607.7372092881205,807.4346619411881 L608.0484087438755,810.8781209233136 M608.0484087438755,810.8781209233136 L607.9106927437147,814.0849495824355 M607.9106927437147,814.0849495824355 L607.3277485619226,816.9776744291421 M607.3277485619226,816.9776744291421 L606.314077819627,819.4865883313926 M606.314077819627,819.4865883313926 L604.8946304232084,821.5514465711935 M604.8946304232084,821.5514465711935 L603.1041139525975,823.1228673376784 M603.1041139525975,823.1228673376784 L600.9861174030302,824.1634926553666 M600.9861174030302,824.1634926553666 L598.5919991757664,824.6488219286866 M598.5919991757664,824.6488219286866 L595.979714690749,824.5678042912405 M595.979714690749,824.5678042912405 L593.2122858854394,823.9229768924445 M593.2122858854394,823.9229768924445 L590.35629312212,822.7303565891805 M606.4818207139219,773.0985196958902 L609.3014699235246,775.3789260504559 M609.3014699235246,775.3789260504559 L611.9906060388398,778.0763763928703 M611.9906060388398,778.0763763928703 L614.4839119193115,781.1256032571337 M614.4839119193115,781.1256032571337 L616.7208154908003,784.4526875604536 M616.7208154908003,784.4526875604536 L618.6469349875916,787.9768662832004 M618.6469349875916,787.9768662832004 L620.2155519045115,791.6125781065499 M620.2155519045115,791.6125781065499 L621.3886319964377,795.2715250590954 M621.3886319964377,795.2715250590954 L622.1378845208083,798.8649315177688 M622.1378845208083,798.8649315177688 L622.4453653082221,802.3056769301099 M622.4453653082221,802.3056769301099 L622.3039263153996,805.5104810464154 M622.3039263153996,805.5104810464154 L621.7173444654973,808.4019190745576 M621.7173444654973,808.4019190745576 L620.7002086928925,810.9103143039248 M620.7002086928925,810.9103143039248 L619.2775518092033,812.9754334435215 M619.2775518092033,812.9754334435215 L617.4841579620494,814.5478870102764 M617.4841579620494,814.5478870102764 L615.3636846029204,815.5902905613888 M615.3636846029204,815.5902905613888 L612.9675489209169,816.0780990633468 M612.9675489209169,816.0780990633468 L610.353754118021,816.0002003131885 M610.353754118021,816.0002003131885 L607.5853578443996,815.3590550281145 M607.5853578443996,815.3590550281145 L604.7289633102943,814.1705904739481 M589.1922044096615,822.0989542085667 L603.5648753606098,813.5409799072386 M590.35629312212,822.7303565891805 L589.1922044096615,822.0989542085667 M604.7289633102943,814.1705904739481 L603.5648753606098,813.5409799072386 M446.95191282566316,739.8668407549962 L461.3279302950802,731.5297896386364 M589.1922044096615,822.0989542085667 L446.95191282566316,739.8668407549962 M603.5648753606098,813.5409799072386 L461.3279302950802,731.5297896386364 M444.69027742871845,738.3953886580501 L459.06649662932335,730.0619363211425 M446.95191282566316,739.8668407549962 L446.19612084046594,739.4116608127304 M446.19612084046594,739.4116608127304 L445.44180583890295,738.9208902185865 M445.44180583890295,738.9208902185865 L444.69027742871845,738.3953886580501 M461.3279302950802,731.5297896386364 L460.5721637440919,731.0757880336489 M460.5721637440919,731.0757880336489 L459.8179160247983,730.5862177300162 M459.8179160247983,730.5862177300162 L459.06649662932335,730.0619363211425 M428.92974583624044,708.6515318668256 L443.3298302991889,700.3561660060476 M444.69027742871845,738.3953886580501 L441.8587710328545,736.0766102700157 M441.8587710328545,736.0766102700157 L439.1597523183261,733.3216455677043 M439.1597523183261,733.3216455677043 L436.66214016180174,730.2011034605787 M436.66214016180174,730.2011034605787 L434.4296896461529,726.7948182285322 M434.4296896461529,726.7948182285322 L432.5194025568513,723.1898391049706 M432.5194025568513,723.1898391049706 L430.9801081006587,719.4782565096917 M430.9801081006587,719.4782565096917 L429.8512349089901,715.7548904365985 M429.8512349089901,715.7548904365985 L429.1618163725694,712.1149289257389 M429.1618163725694,712.1149289257389 L428.92974583624044,708.6515318668256 M459.06649662932335,730.0619363211425 L456.2357904420988,727.7479803248654 M456.2357904420988,727.7479803248654 L453.53816103273164,724.9979745680255 M453.53816103273164,724.9979745680255 L451.0424921967457,721.8824015195826 M451.0424921967457,721.8824015195826 L448.81248987608143,718.4809690979062 M448.81248987608143,718.4809690979062 L446.90509383548243,714.8806033562962 M446.90509383548243,714.8806033562962 L445.3690598739898,711.1732777077461 M445.3690598739898,711.1732777077461 L444.24373362615194,707.4537041630272 M444.24373362615194,707.4537041630272 L443.55805793171857,703.8169744160157 M443.55805793171857,703.8169744160157 L443.3298302991889,700.3561660060476 M428.87369368791786,127.20845611453808 L443.9447199643952,119.33926898247165 M428.92974583624044,708.6515318668256 L428.87369368791786,127.20845611453808 M443.3298302991889,700.3561660060476 L443.9447199643952,119.33926898247165 M446.60801248918074,113.6178930929126 L461.7052954920446,105.74106958449727 M428.87369368791786,127.20845611453808 L429.08746006423445,123.89094736231465 M429.08746006423445,123.89094736231465 L429.7248384210429,120.87036634110831 M429.7248384210429,120.87036634110831 L430.7718098243659,118.21532061843374 M430.7718098243659,118.21532061843374 L432.205087448645,115.98626895020442 M432.205087448645,115.98626895020442 L433.9926001422128,114.23419523370137 M433.9926001422128,114.23419523370137 L436.0941779950694,112.99946054798272 M436.0941779950694,112.99946054798272 L438.462428811416,112.31054916006514 M438.462428811416,112.31054916006514 L441.04378830524365,112.18386736630123 M441.04378830524365,112.18386736630123 L443.77971333563124,112.62276698921767 M443.77971333563124,112.62276698921767 L446.60801248918074,113.6178930929126 M443.9447199643952,119.33926898247165 L444.1624428629683,116.02417626923926 M444.1624428629683,116.02417626923926 L444.8036891639471,113.0053358074698 M444.8036891639471,113.0053358074698 L445.8543517263488,110.3513150940604 M445.8543517263488,110.3513150940604 L447.2910593390472,108.12254865208507 M447.2910593390472,108.12254865208507 L449.08166218103827,106.37001257130913 M449.08166218103827,106.37001257130913 L451.18591919688146,105.13407681048761 M451.18591919688146,105.13407681048761 L453.55637660377,104.44325137337 M453.55637660377,104.44325137337 L456.13941899572484,104.31398431173989 M456.13941899572484,104.31398431173989 L458.8764644465946,104.74968486038836 M458.8764644465946,104.74968486038836 L461.7052954920446,105.74106958449727 M447.7984596833123,114.19182688084982 L462.89578722163515,106.31330407052712 M446.60801248918074,113.6178930929126 L447.0045202673359,113.79898040201408 M447.0045202673359,113.79898040201408 L447.4013949226913,113.99033747777423 M447.4013949226913,113.99033747777423 L447.7984596833123,114.19182688084982 M461.7052954920446,105.74106958449727 L462.1018297526145,105.92159899350094 M462.1018297526145,105.92159899350094 L462.4987192348784,106.1123895375764 M462.4987192348784,106.1123895375764 L462.89578722163515,106.31330407052712 M540.2279195604506,162.26822066467975 L555.3235322837133,154.25436031903752 M447.7984596833123,114.19182688084982 L540.2279195604506,162.26822066467975 M462.89578722163515,106.31330407052712 L555.3235322837133,154.25436031903752 M540.2320024203086,161.78576806226602 L555.3281683865821,153.7722934083631 M540.2279195604506,162.26822066467975 L540.2320024203086,161.78576806226602 M555.3235322837133,154.25436031903752 L555.3281683865821,153.7722934083631 M559.7739731164926,149.21592938904797 L574.895405453003,141.19216048915825 M540.2320024203086,161.78576806226602 L540.5556179441597,158.3878500091388 M540.5556179441597,158.3878500091388 L541.3341247635374,155.3212187027454 M541.3341247635374,155.3212187027454 L542.5493986314854,152.6595802116131 M542.5493986314854,152.6595802116131 L544.1728121707005,150.46700626753207 M544.1728121707005,150.46700626753207 L546.1659726572996,148.79647676662617 M546.1659726572996,148.79647676662617 L548.4815102023013,147.68875458084102 M548.4815102023013,147.68875458084102 L551.0642241320097,147.17095193565308 M551.0642241320097,147.17095193565308 L553.8523524558448,147.25627618495457 M553.8523524558448,147.25627618495457 L556.7790431572574,147.94320734709714 M556.7790431572574,147.94320734709714 L559.7739731164926,149.21592938904797 M555.3281683865821,153.7722934083631 L555.6558463813627,150.37678381737516 M555.6558463813627,150.37678381737516 L556.4382929101014,147.31181847383866 M556.4382929101014,147.31181847383866 L557.6572886373708,144.65106266689165 M557.6572886373708,144.65106266689165 L559.2841161881742,142.4585658095391 M559.2841161881742,142.4585658095391 L561.2803001002945,140.78730439571092 M561.2803001002945,140.78730439571092 L563.5983968177189,139.6780569764993 M563.5983968177189,139.6780569764993 L566.1831434218051,139.157970602177 M566.1831434218051,139.157970602177 L568.9727281514616,139.2403055887251 M568.9727281514616,139.2403055887251 L571.9002634810911,139.92361229903815 M571.9002634810911,139.92361229903815 L574.895405453003,141.19216048915825 M578.9342798289957,181.91470515423168 L594.0290686072951,173.84422257399456 M559.7739731164926,149.21592938904797 L562.765023081824,151.0441790250012 M562.765023081824,151.0441790250012 L565.6800481594225,153.3843843777114 M565.6800481594225,153.3843843777114 L568.4486689695752,156.18026324561666 M568.4486689695752,156.18026324561666 L571.0039713292505,159.36462587847382 M571.0039713292505,159.36462587847382 L573.284186424151,162.8605760415653 M573.284186424151,162.8605760415653 L575.234217612097,166.58383996965193 M575.234217612097,166.58383996965193 L576.8069877702441,170.44436124180595 M576.8069877702441,170.44436124180595 L577.9646416940913,174.3489737495527 M577.9646416940913,174.3489737495527 L578.6793899507439,178.2034263698137 M578.6793899507439,178.2034263698137 L578.9342798289957,181.91470515423168 M574.895405453003,141.19216048915825 L577.8860297242906,143.01578656494706 M577.8860297242906,143.01578656494706 L580.8000016879124,145.35102952259382 M580.8000016879124,145.35102952259382 L583.5669678659,148.14172687861216 M583.5669678659,148.14172687861216 L586.1200543914646,151.32081418516233 M586.1200543914646,151.32081418516233 L588.397546649788,154.8115233078712 M588.397546649788,154.8115233078712 L590.3444141844686,158.52970780302786 M590.3444141844686,158.52970780302786 L591.9136568971733,162.38543497735634 M591.9136568971733,162.38543497735634 L593.0675050118344,166.28565530106135 M593.0675050118344,166.28565530106135 L593.7782610591188,170.13622442771376 M593.7782610591188,170.13622442771376 L594.0290686072951,173.84422257399456 M578.6703257232084,204.9569448793206 L593.7387506144115,196.86810540655068 M578.9342798289957,181.91470515423168 L578.6703257232084,204.9569448793206 M594.0290686072951,173.84422257399456 L593.7387506144115,196.86810540655068 M578.6703257232084,204.9569448793206 L578.670423815078,205.28007314418 M578.670423815078,205.28007314418 L578.6667455263984,205.6011662419526 M578.6667455263984,205.6011662419526 L578.659290069512,205.9203175733562 M593.7387506144115,196.86810540655068 L593.738481091263,197.1909730516315 M593.738481091263,197.1909730516315 L593.7344354118725,197.51181118821614 M593.7344354118725,197.51181118821614 L593.7266126814677,197.8307131428205" stroke="black"  stroke-width="4"  fill="red"/>
<path d="M216.31086010277468,144.57557105110874 L221.4505218476845,155.4261215193226 M240.96421726076295,163.46772063464073 L246.13923844524612,174.32936303299982 M216.31086010277468,144.57557105110874 L216.73350601075583,147.90394033546272 M216.73350601075583,147.90394033546272 L217.71941243004792,151.06650763724144 M217.71941243004792,151.06650763724144 L219.24636660458862,153.99353642194035 M219.24636660458862,153.99353642194035 L221.28024364963807,156.6207114880785 M221.28024364963807,156.6207114880785 L223.77579042482523,158.8902923744567 M223.77579042482523,158.8902923744567 L226.6777054691101,160.75265868206532 M226.6777054691101,160.75265868206532 L229.92181486823952,162.1670977854543 M229.92181486823952,162.1670977854543 L233.43657749020343,163.10277163600222 M233.43657749020343,163.10277163600222 L237.1445615258063,163.53943757084016 M237.1445615258063,163.53943757084016 L240.96421726076295,163.46772063464073 M221.4505218476845,155.4261215193226 L221.87260158124,158.7579670902447 M221.87260158124,158.7579670902447 L222.85898070398946,161.9236070852687 M222.85898070398946,161.9236070852687 L224.38744375876502,164.85324267676276 M224.38744375876502,164.85324267676276 L226.42381683090028,167.4824945345942 M226.42381683090028,167.4824945345942 L228.92280436661875,169.75358493163142 M228.92280436661875,169.75358493163142 L231.82902320962927,171.61685895902633 M231.82902320962927,171.61685895902633 L235.07820389249025,173.0315852609334 M235.07820389249025,173.0315852609334 L238.59869808304438,173.96692313077233 M238.59869808304438,173.96692313077233 L242.31293382565815,174.4026309036198 M242.31293382565815,174.4026309036198 L246.13923844524612,174.32936303299982 M242.5913946836984,163.28467603519232 L247.76930812843602,174.14549217344165 M240.96421726076295,163.46772063464073 L241.50637989993695,163.41674721738542 M241.50637989993695,163.41674721738542 L242.0488440503218,163.35570755784116 M242.0488440503218,163.35570755784116 L242.5913946836984,163.28467603519232 M246.13923844524612,174.32936303299982 L246.6823608223748,174.27812517424383 M246.6823608223748,174.27812517424383 L247.22579392157724,174.21681257470752 M247.22579392157724,174.21681257470752 L247.76930812843602,174.14549217344165 M367.4023315626811,145.7903482831477 L372.8027096758204,156.5841439767234 M242.5913946836984,163.28467603519232 L367.4023315626811,145.7903482831477 M247.76930812843602,174.14549217344165 L372.8027096758204,156.5841439767234 M369.9911427944299,683.3751210442306 L375.172981980955,694.7073627829357 M367.4023315626811,145.7903482831477 L369.9911427944299,683.3751210442306 M372.8027096758204,156.5841439767234 L375.172981980955,694.7073627829357 M202.0236662648559,709.1607145440194 L206.9181898515696,720.5877065117904 M369.9911427944299,683.3751210442306 L202.0236662648559,709.1607145440194 M375.172981980955,694.7073627829357 L206.9181898515696,720.5877065117904 M198.90752774299165,709.8046751393504 L203.79662762112545,721.2335797495509 M202.0236662648559,709.1607145440194 L198.90752774299165,709.8046751393504 M206.9181898515696,720.5877065117904 L203.79662762112545,721.2335797495509 M201.2294592435531,751.0967463071643 L206.10630522892797,762.5627558896512 M198.90752774299165,709.8046751393504 L195.13471175226448,711.0424238786925 M195.13471175226448,711.0424238786925 L191.53737379785068,712.7396241012643 M191.53737379785068,712.7396241012643 L188.20269705128638,714.8551389076629 M188.20269705128638,714.8551389076629 L185.21144401706778,717.3376377601151 M185.21144401706778,717.3376377601151 L182.63601902092893,720.1268933858585 M182.63601902092893,720.1268933858585 L180.53861551653253,723.1552279482964 M180.53861551653253,723.1552279482964 L178.96979067875841,726.3492287217623 M178.96979067875841,726.3492287217623 L177.96718577555052,729.6315233481275 M177.96718577555052,729.6315233481275 L177.5546346917779,732.9227094461503 M177.5546346917779,732.9227094461503 L177.74169367562232,736.1432598794667 M177.74169367562232,736.1432598794667 L178.5233844017554,739.2154896211234 M178.5233844017554,739.2154896211234 L179.8803545176708,742.0654305626201 M179.8803545176708,742.0654305626201 L181.77942926904242,744.6245732798184 M181.77942926904242,744.6245732798184 L184.1744418527936,746.8315237187066 M184.1744418527936,746.8315237187066 L187.0073583939606,748.6334689682703 M187.0073583939606,748.6334689682703 L190.20977497551675,749.9873802572081 M190.20977497551675,749.9873802572081 L193.70446720330511,750.861024678986 M193.70446720330511,750.861024678986 L197.40734973832812,751.2337080697034 M197.40734973832812,751.2337080697034 L201.2294592435531,751.0967463071643 M203.79662762112545,721.2335797495509 L200.01707118540233,722.4740729408933 M200.01707118540233,722.4740729408933 L196.41310485238722,724.1743701010513 M196.41310485238722,724.1743701010513 L193.0720638440307,726.2932641870881 M193.0720638440307,726.2932641870881 L190.07489360664408,728.7793262570402 M190.07489360664408,728.7793262570402 L187.494104736214,731.5722631791167 M187.494104736214,731.5722631791167 L185.39206709427657,734.6042912437035 M185.39206709427657,734.6042912437035 L183.81940419775307,737.8019022360861 M183.81940419775307,737.8019022360861 L182.81385753782467,741.0876622381077 M182.81385753782467,741.0876622381077 L182.39934997184494,744.3820635049317 M182.39934997184494,744.3820635049317 L182.58547413005067,747.6055063844551 M182.58547413005067,747.6055063844551 L183.36727259228536,750.6802362083666 M183.36727259228536,750.6802362083666 L184.72538863774022,753.5322250955219 M184.72538863774022,753.5322250955219 L186.6266181837619,756.0929149834691 M186.6266181837619,756.0929149834691 L189.024741009037,758.300875519463 M189.024741009037,758.300875519463 L191.86165652926894,760.1032653051186 M191.86165652926894,760.1032653051186 L195.06883582772232,761.4570619678508 M195.06883582772232,761.4570619678508 L198.56896751465285,762.3300205635094 M198.56896751465285,762.3300205635094 L202.27782613494435,762.7014697554321 M202.27782613494435,762.7014697554321 L206.10630522892797,762.5627558896512 M202.7875750398631,750.8970940025038 L207.66707773872534,762.3622602245616 M201.2294592435531,751.0967463071643 L202.7875750398631,750.8970940025038 M206.10630522892797,762.5627558896512 L207.66707773872534,762.3622602245616 M394.7735016320398,721.2257310787346 L399.98008904271984,732.582266951347 M202.7875750398631,750.8970940025038 L394.7735016320398,721.2257310787346 M207.66707773872534,762.3622602245616 L399.98008904271984,732.582266951347 M397.85187817947536,720.5862952709131 L403.0637538557925,731.9409429845552 M394.7735016320398,721.2257310787346 L395.80217624519315,721.0485421567887 M395.80217624519315,721.0485421567887 L396.8288987926061,720.8352723119897 M396.8288987926061,720.8352723119897 L397.85187817947536,720.5862952709131 M399.98008904271984,732.582266951347 L401.0105159797256,732.4044801162833 M401.0105159797256,732.4044801162833 L402.0390009666251,732.1905806294213 M402.0390009666251,732.1905806294213 L403.0637538557925,731.9409429845552 M419.3072954646932,696.6539019103899 L424.56420984879355,707.9775910541979 M397.85187817947536,720.5862952709131 L401.70660545917644,719.3097427295113 M401.70660545917644,719.3097427295113 L405.3816203991374,717.5486748899448 M405.3816203991374,717.5486748899448 L408.7828652669394,715.3481564139161 M408.7828652669394,715.3481564139161 L411.82324504164364,712.7644466664913 M411.82324504164364,712.7644466664913 L414.42481288445543,709.8635881951052 M414.42481288445543,709.8635881951052 L416.520755883955,706.7197570155681 M416.520755883955,706.7197570155681 L418.0570993359912,703.413391269818 M418.0570993359912,703.413391269818 L418.99410069922124,700.0291776462988 M418.99410069922124,700.0291776462988 L419.3072954646932,696.6539019103899 M403.0637538557925,731.9409429845552 L406.92529848579886,730.6615938454183 M406.92529848579886,730.6615938454183 L410.6070401332057,728.8973646013962 M410.6070401332057,728.8973646013962 L414.01475265229254,726.6933987402499 M414.01475265229254,726.6933987402499 L417.061172422598,724.1060436304801 M417.061172422598,724.1060436304801 L419.66820026097605,721.201435089936 M419.66820026097605,721.201435089936 L421.7688827406991,718.0538436150975 M421.7688827406991,718.0538436150975 L423.30912429124686,714.7438030203095 M423.30912429124686,714.7438030203095 L424.24908092631046,711.3560942461909 M424.24908092631046,711.3560942461909 L424.56420984879355,707.9775910541979 M418.80335100980295,115.82752705447211 L424.3045232786269,126.56910276746123 M419.3072954646932,696.6539019103899 L418.80335100980295,115.82752705447211 M424.56420984879355,707.9775910541979 L424.3045232786269,126.56910276746123 M394.61968952855943,96.39734937993944 L400.0874586655903,107.12695207243598 M418.80335100980295,115.82752705447211 L418.5083955544357,112.44295561685101 M418.5083955544357,112.44295561685101 L417.63584386133385,109.21489190277362 M417.63584386133385,109.21489190277362 L416.20501490751815,106.21671740071156 M416.20501490751815,106.21671740071156 L414.24793650936545,103.51668169120217 M414.24793650936545,103.51668169120217 L411.80865712391227,101.17639768322925 M411.80865712391227,101.17639768322925 L408.94227763136223,99.2494584171269 M408.94227763136223,99.2494584171269 L405.71372864817096,97.77989453836119 M405.71372864817096,97.77989453836119 L402.1963042137266,96.80163080601011 M402.1963042137266,96.80163080601011 L398.4700032051667,96.33713585247966 M398.4700032051667,96.33713585247966 L394.61968952855943,96.39734937993944 M424.3045232786269,126.56910276746123 L424.0104902774516,123.1809611350294 M424.0104902774516,123.1809611350294 L423.13780213754416,119.94971442478686 M423.13780213754416,119.94971442478686 L421.7057806101184,116.94881812638664 M421.7057806101184,116.94881812638664 L419.74647842301107,114.24658341863153 M419.74647842301107,114.24658341863153 L417.3039930248093,111.90467363161082 M417.3039930248093,111.90467363161082 L414.43349593630984,109.97672206635468 M414.43349593630984,109.97672206635468 L411.2000116135065,108.50678187709707 M411.2000116135065,108.50678187709707 L407.676946600821,107.52878877478099 M407.676946600821,107.52878877478099 L403.9444253670093,107.06520595017685 M403.9444253670093,107.06520595017685 L400.0874586655903,107.12695207243598 M392.9996081476637,96.57742002521564 L398.4645109111854,107.30783792825378 M394.61968952855943,96.39734937993944 L394.080045487506,96.44727614993735 M394.080045487506,96.44727614993735 L393.5399387497131,96.50732591525366 M393.5399387497131,96.50732591525366 L392.9996081476637,96.57742002521564 M400.0874586655903,107.12695207243598 L399.54686448296167,107.17713916595426 M399.54686448296167,107.17713916595426 L399.0058025400375,107.23746051788123 M399.0058025400375,107.23746051788123 L398.4645109111854,107.30783792825378 M267.9044593237443,113.96987727990495 L273.1459114445544,124.76711707079357 M392.9996081476637,96.57742002521564 L267.9044593237443,113.96987727990495 M398.4645109111854,107.30783792825378 L273.1459114445544,124.76711707079357 M267.89849454548477,113.4897619193311 L273.14012828941543,124.2864765625119 M267.9044593237443,113.96987727990495 L267.89849454548477,113.4897619193311 M273.1459114445544,124.76711707079357 L273.14012828941543,124.2864765625119 M241.6013146297367,94.60830656945598 L246.80470883033874,105.39424401842462 M267.89849454548477,113.4897619193311 L267.4594441066931,110.01136284060289 M267.4594441066931,110.01136284060289 L266.40821672783613,106.71238278856777 M266.40821672783613,106.71238278856777 L264.7695026403742,103.67213374916514 M264.7695026403742,103.67213374916514 L262.5820903086736,100.96376997073696 M262.5820903086736,100.96376997073696 L259.8980596818535,98.65251854477185 M259.8980596818535,98.65251854477185 L256.7814910795912,96.79436909055289 M256.7814910795912,96.79436909055289 L253.30700388395118,95.4342189647968 M253.30700388395118,95.4342189647968 L249.55798383825478,94.60522960192611 M249.55798383825478,94.60522960192611 L245.62453867802662,94.32756487998125 M245.62453867802662,94.32756487998125 L241.6013146297367,94.60830656945598 M273.14012828941543,124.2864765625119 L272.70170601238556,120.80442200719199 M272.70170601238556,120.80442200719199 L271.64997550000044,117.50221646017735 M271.64997550000044,117.50221646017735 L270.0096276480575,114.45924496862227 M270.0096276480575,114.45924496862227 L267.81948820311146,111.74872808449595 M267.81948820311146,111.74872808449595 L265.13171039339727,109.43595064861188 M265.13171039339727,109.43595064861188 L262.0104584632654,107.57693799515954 M262.0104584632654,107.57693799515954 L258.5304635896167,106.21660951744269 M258.5304635896167,106.21660951744269 L254.7752483858755,105.38813488891537 M254.7752483858755,105.38813488891537 L250.8350557007135,105.11165916874074 M250.8350557007135,105.11165916874074 L246.80470883033874,105.39424401842462 M215.9192475101697,120.71601955820245 L221.06758692756696,131.54055777609705 M241.6013146297367,94.60830656945598 L237.58525358547124,95.44077580832322 M237.58525358547124,95.44077580832322 L233.67314037778536,96.80514735134875 M233.67314037778536,96.80514735134875 L229.9593105305182,98.66845942931315 M229.9593105305182,98.66845942931315 L226.5332681140688,100.98588368829724 M226.5332681140688,100.98588368829724 L223.47753665183376,103.70139527953279 M223.47753665183376,103.70139527953279 L220.8656375062524,106.74957610357444 M220.8656375062524,106.74957610357444 L218.7602870948618,110.05675150686727 M218.7602870948618,110.05675150686727 L217.2119014308628,113.54324314849339 M217.2119014308628,113.54324314849339 L216.25738125798938,117.12508887882393 M216.25738125798938,117.12508887882393 L215.9192475101697,120.71601955820245 M246.80470883033874,105.39424401842462 L242.78131741002016,106.2291640447188 M242.78131741002016,106.2291640447188 L238.86184861197063,107.59653776832403 M238.86184861197063,107.59653776832403 L235.14080225242841,109.46332322682974 M235.14080225242841,109.46332322682974 L231.70787135562335,111.78461540417402 M231.70787135562335,111.78461540417402 L228.64574146835716,114.5042928370139 M228.64574146835716,114.5042928370139 L226.02808370198136,117.55683372642977 M226.02808370198136,117.55683372642977 L223.91776724891346,120.86846474699024 M223.91776724891346,120.86846474699024 L222.36531774897037,124.35939446405752 M222.36531774897037,124.35939446405752 L221.40772336626483,127.9455482570205 M221.40772336626483,127.9455482570205 L221.06758692756696,131.54055777609705 M216.29514394124303,143.61804166513758 L221.43515398963373,154.46755144961955 M215.9192475101697,120.71601955820245 L216.29514394124303,143.61804166513758 M221.06758692756696,131.54055777609705 L221.43515398963373,154.46755144961955 M216.29514394124303,143.61804166513758 L216.29531395588495,143.93795488657793 M216.29531395588495,143.93795488657793 L216.30055229231425,144.2571003647086 M216.30055229231425,144.2571003647086 L216.31086010277468,144.57557105110874 M221.43515398963373,154.46755144961955 L221.43520352371067,154.78781687333043 M221.43520352371067,154.78781687333043 L221.4403257705931,155.10730921243876 M221.4403257705931,155.10730921243876 L221.4505218476845,155.4261215193226" stroke="black"  stroke-width="4"  fill="red"/></svg>